<svg xmlns="http://www.w3.org/2000/svg" xmlns:xlink="http://www.w3.org/1999/xlink" viewBox="0 0 1789.969 1399.231">
  <defs>
    <style>
      .cls-1, .cls-11, .cls-13 {
        fill: none;
      }

      .cls-2, .cls-3 {
        fill: #1ce9b6;
      }

      .cls-2, .cls-27, .cls-31 {
        opacity: 0.1;
      }

      .cls-4 {
        fill: #444053;
      }

      .cls-14, .cls-16, .cls-22, .cls-27, .cls-5 {
        fill: #3f3d56;
      }

      .cls-11, .cls-13, .cls-5, .cls-6, .cls-7, .cls-8, .cls-9 {
        stroke: #707070;
      }

      .cls-15, .cls-19, .cls-26, .cls-6 {
        fill: #fff;
      }

      .cls-7 {
        fill: #fa5959;
      }

      .cls-7, .cls-8, .cls-9 {
        opacity: 0.8;
      }

      .cls-8 {
        fill: #fed253;
      }

      .cls-9 {
        fill: #8ccf4d;
      }

      .cls-10 {
        clip-path: url(#clip-path);
      }

      .cls-12 {
        clip-path: url(#clip-path-2);
      }

      .cls-13 {
        stroke-width: 0.6px;
      }

      .cls-15 {
        font-size: 18px;
      }

      .cls-15, .cls-16, .cls-19, .cls-22, .cls-26 {
        font-family: Roboto-Regular, Roboto;
      }

      .cls-16 {
        font-size: 22px;
      }

      .cls-17 {
        fill: #ff69b4;
      }

      .cls-18 {
        fill: #6c63ff;
      }

      .cls-19 {
        font-size: 29px;
      }

      .cls-20 {
        fill: #4fc3f7;
      }

      .cls-21 {
        fill: #ffd037;
      }

      .cls-22 {
        font-size: 14px;
      }

      .cls-23 {
        fill: #7cfcff;
      }

      .cls-24 {
        fill: #ffffa5;
      }

      .cls-25 {
        fill: #fc6681;
      }

      .cls-26 {
        font-size: 48px;
      }

      .cls-28 {
        fill: #303d5c;
      }

      .cls-29 {
        fill: #ee8e9e;
      }

      .cls-30 {
        opacity: 0.05;
      }
    </style>
    <clipPath id="clip-path">
      <rect class="cls-1" width="1205.24" height="1109"/>
    </clipPath>
    <clipPath id="clip-path-2">
      <rect class="cls-1" width="1148.24" height="1037"/>
    </clipPath>
  </defs>
  <g id="agenda" transform="translate(115.407 -72.302)">
    <g id="background">
      <path id="Path_2622" data-name="Path 2622" class="cls-2" d="M946.366,233.693c-103.651-.164-203.518-32.366-299.066-68.2s-190.337-75.8-292.111-92.942c-65.536-11.022-139.859-10.277-190.9,28.866-49.107,37.668-63.168,100.18-69.9,158-5.049,43.462-7.313,89.114,12.169,128.942,13.539,27.659,36.626,50.477,52.965,76.856,56.852,91.75,23.116,208.523-31.636,302.09-25.693,43.8-55.795,85.852-75.172,132.263s-27.227,99.078-7.209,145c19.869,45.533,64.553,78.732,112.349,101.387,97.246,46.173,210.251,56.331,320.231,60.457,243.5,9.145,487.363-7.149,730.59-23.533,90.007-6.047,180.417-12.154,268.533-30.221,48.928-10.024,99.286-24.963,133.9-57.969,43.939-41.883,52.756-110.472,20.569-159.877-54.007-82.948-195.743-98.974-234.618-188.609-21.4-49.345-3.232-105.751,23.623-153.2,57.627-101.714,157.047-192.69,158.4-306.663.923-78.285-51.133-154.8-128.644-189.056-81.265-35.955-191.841-27.108-248.485,39.143C1143.629,204.634,1037.893,233.842,946.366,233.693Z" transform="translate(-32.81 140.57)"/>
      <g id="flower" transform="translate(-1548.819 -120.276)">
        <path id="Path_2623" data-name="Path 2623" class="cls-3" d="M968.18,694.864s19.069-12.583,37.967-3.631c0,0-5.818,11.218-29.744,10.147Z" transform="translate(728.242 216.568)"/>
        <path id="Path_2624" data-name="Path 2624" class="cls-3" d="M987.167,692.87s-5.8,22.095,8.736,37.129c0,0,8.751-9.123,0-31.435Z" transform="translate(706.913 219.244)"/>
        <path id="Path_2625" data-name="Path 2625" class="cls-3" d="M981.24,684.119s1.412-18.805,43.832-12.568c0,0,.2,12.133-14.693,17.874S988.672,690.325,981.24,684.119Z" transform="translate(689.054 206.785)"/>
        <path id="Path_2626" data-name="Path 2626" class="cls-3" d="M1011.754,679.11s-17.952,5.772-1.955,45.57c0,0,11.839-2.653,13.964-18.479S1019.527,684.882,1011.754,679.11Z" transform="translate(655.933 211.654)"/>
        <path id="Path_2627" data-name="Path 2627" class="cls-3" d="M1000.252,671.874s-2.42-30.923,40.946-27.742c0,0,3.1,27.928-33.281,35.174Z" transform="translate(643.401 192.234)"/>
        <path id="Path_2628" data-name="Path 2628" class="cls-3" d="M1013.36,648.864s5.958-35.035,49.294-24.593c0,0,.171,30.3-42.2,32.956Z" transform="translate(601.636 180.334)"/>
        <path id="Path_2629" data-name="Path 2629" class="cls-3" d="M1024.53,625.349s9.946-34.135,52.893-23.91c0,0-10.209,30.69-50.038,30.225Z" transform="translate(569.535 167.758)"/>
        <path id="Path_2630" data-name="Path 2630" class="cls-3" d="M1038.44,602.989s9.728-35.423,51.2-24.825c0,0-13.84,33.654-48.472,30.83Z" transform="translate(535.734 154.882)"/>
        <path id="Path_2631" data-name="Path 2631" class="cls-3" d="M1050,584.359s7.478-43.258,46.1-33.731c0,0-11.233,39.41-43.289,40.031Z" transform="translate(511.342 140.029)"/>
        <path id="Path_2632" data-name="Path 2632" class="cls-3" d="M1056.45,557.658s8.968-43.677,48.1-31.032c0,0-15.345,41.257-45.337,36.99Z" transform="translate(492.883 126.28)"/>
        <path id="Path_2633" data-name="Path 2633" class="cls-3" d="M1063.57,536.651s14.259-43.662,44.5-42.482c0,0-14.585,46.129-41.893,51.2Z" transform="translate(478.315 109.631)"/>
        <path id="Path_2634" data-name="Path 2634" class="cls-3" d="M1069.44,515.2s15.516-52.568,40.124-48.518c0,0-10.737,40.186-39.255,56.695Z" transform="translate(467.713 94.358)"/>
        <path id="Path_2635" data-name="Path 2635" class="cls-3" d="M1072,485.784s14.538-43.817,38.79-45.554c0,0-9.9,43.1-38.293,56.928Z" transform="translate(462.515 79.892)"/>
        <path id="Path_2636" data-name="Path 2636" class="cls-3" d="M1076.93,459.2s18.138-43.863,34.135-44.841c0,0-7.866,43.165-32.583,52.04Z" transform="translate(454.591 65.623)"/>
        <path id="Path_2637" data-name="Path 2637" class="cls-3" d="M1082.7,437.075s11.2-47.7,27.183-51.575c0,0-2.2,38.945-25.586,55.128Z" transform="translate(446.819 49.704)"/>
        <path id="Path_2638" data-name="Path 2638" class="cls-3" d="M1088.18,402.2s11.73-37.952,24.717-43.739c0,0-2.576,44.748-21.722,53.033Z" transform="translate(435.303 34.789)"/>
        <path id="Path_2639" data-name="Path 2639" class="cls-3" d="M1103.434,389.375l-2.374-66.935s24.236,50.5,4.158,78.743Z" transform="translate(415.038 14.921)"/>
        <path id="Path_2640" data-name="Path 2640" class="cls-3" d="M1135.063,341.056s-17.471-48.89-21.722-51.606c0,0,34.29,31.7,30.938,72.505Z" transform="translate(364.649 -3.275)"/>
        <path id="Path_2641" data-name="Path 2641" class="cls-3" d="M1052.732,661.825s-30.752-4.034-29.822,39.441c0,0,27.789,4.515,36.85-31.42Z" transform="translate(589.742 202.066)"/>
        <path id="Path_2642" data-name="Path 2642" class="cls-3" d="M1074.249,638.68s-35.547-.124-32.583,44.375c0,0,29.821,5.322,39.674-35.981Z" transform="translate(539.304 189.354)"/>
        <path id="Path_2643" data-name="Path 2643" class="cls-3" d="M1109.918,619.025s-32.257-15.128-52.909,23.91c0,0,29.806,12.614,55.748-17.61Z" transform="translate(483.805 176.922)"/>
        <path id="Path_2644" data-name="Path 2644" class="cls-3" d="M1122.562,594.87s-33.018-16.106-52.412,22.048c0,0,34.4,11.854,55.143-16.012Z" transform="translate(450.882 163.327)"/>
        <path id="Path_2645" data-name="Path 2645" class="cls-3" d="M1135.65,577.24s-31.792-30.364-57.16.357c0,0,32.475,24.98,58.634,6.408Z" transform="translate(426.111 148.079)"/>
        <path id="Path_2646" data-name="Path 2646" class="cls-3" d="M1142.72,549.9s-31.994-31.032-57.16,1.427c0,0,35.9,25.492,58.293,5.089Z" transform="translate(408.412 133.003)"/>
        <path id="Path_2647" data-name="Path 2647" class="cls-3" d="M1143.788,531.9s-24.639-38.79-53.638-30.116c0,0,25.555,41.07,53.359,39.239Z" transform="translate(401.355 113.144)"/>
        <path id="Path_2648" data-name="Path 2648" class="cls-3" d="M1142.721,512.406s-24.825-48.859-48.3-40.341c0,0,17.89,37.548,48.937,48.58Z" transform="translate(395.161 96.902)"/>
        <path id="Path_2649" data-name="Path 2649" class="cls-3" d="M1143.774,480.143s-25.523-38.448-49.434-33.762c0,0,20.853,38.991,51.9,44.887Z" transform="translate(392.402 83.066)"/>
        <path id="Path_2650" data-name="Path 2650" class="cls-3" d="M1133.047,458.172s-19.767-43.134-35.857-43.522c0,0,9.5,42.855,34.538,50.783Z" transform="translate(401.173 65.783)"/>
        <path id="Path_2651" data-name="Path 2651" class="cls-3" d="M1138.22,433.69s-21.986-43.693-38.51-43.77c0,0,11.249,37.347,37.766,47.618Z" transform="translate(392.09 52.142)"/>
        <path id="Path_2652" data-name="Path 2652" class="cls-3" d="M1131.9,402.688s-16.447-36.152-30.054-40.248c0,0,8.223,44.065,28.254,49.837Z" transform="translate(395.086 36.985)"/>
        <path id="Path_2653" data-name="Path 2653" class="cls-3" d="M1141.891,384.661,1105.15,328.68s9.4,55.221,42.11,66.718Z" transform="translate(374.61 18.363)"/>
        <path id="Path_2654" data-name="Path 2654" class="cls-3" d="M1157.641,337.789s-42.715-29.48-44.251-34.259c0,0,21.722,41.3,62.063,48.6Z" transform="translate(333.631 4.491)"/>
        <path id="Path_2656" data-name="Path 2656" class="cls-4" d="M1141.777,436.09l-1.784.233c-9.216-72.149-22.653-114.817-37.843-120.061l.59-1.691C1118.83,320.156,1132.328,362.173,1141.777,436.09Z" transform="translate(384.747 10.58)"/>
        <path id="Path_2657" data-name="Path 2657" class="cls-4" d="M1109.23,567.282l-2.7.233c-.558-6.734-.993-13.638-1.288-20.5-2.576-59.72-6.579-114.538-11.823-155.639l1.552-1.939c5.26,41.179,10.38,97.672,12.956,157.455C1108.238,553.721,1108.672,560.579,1109.23,567.282Z" transform="translate(430.839 51.877)"/>
        <path id="Path_2658" data-name="Path 2658" class="cls-4" d="M1169.1,832.542c-.481-.217-48.006-21.427-97.331-72.056a391.647,391.647,0,0,1-71.14-100.853C977.832,613.2,963.93,556.128,959.26,500.69l2.808,1.319c10.473,124.421,67.121,209.464,112.179,255.763,48.844,50.178,95.826,71.187,96.291,71.373Z" transform="translate(577.691 113.241)"/>
        <path id="Path_2655" data-name="Path 2655" class="cls-3" d="M1187.317,333.8s-49.046-47.153-61.567-47.091c0,0,40.45,1.846,62.746,44.577Z" transform="translate(307.661 0.422)"/>
      </g>
    </g>
    <g id="Content">
      <g id="window">
        <path id="Path_2659" data-name="Path 2659" class="cls-5" d="M1440.125,115.31H124.8c-6.471,0-11.718,4.822-11.718,10.77v31.38H1451.842V126.08c0-5.948-5.246-10.77-11.718-10.77Z" transform="translate(4.99 -42.508)"/>
        <path id="Path_2660" data-name="Path 2660" class="cls-6" d="M113.08,148.81V1464.431c0,22.345,10.578,40.46,23.627,40.46H1428.215c13.049,0,23.627-18.115,23.627-40.46V148.81Z" transform="translate(4.99 -33.858)"/>
        <ellipse id="Ellipse_401" data-name="Ellipse 401" class="cls-7" cx="5.476" cy="5.033" rx="5.476" ry="5.033" transform="translate(133.812 88.517)"/>
        <ellipse id="Ellipse_402" data-name="Ellipse 402" class="cls-8" cx="5.476" cy="5.033" rx="5.476" ry="5.033" transform="translate(148.869 88.517)"/>
        <ellipse id="Ellipse_403" data-name="Ellipse 403" class="cls-9" cx="5.476" cy="5.033" rx="5.476" ry="5.033" transform="translate(163.927 88.517)"/>
      </g>
      <g id="table">
        <g id="Repeat_Grid_1" data-name="Repeat Grid 1" class="cls-10" transform="translate(181.717 296.34)">
          <g transform="translate(-279.588 -1597.336)">
            <path id="Path_2846" data-name="Path 2846" class="cls-11" d="M7820.588,1584.336H9024.494" transform="translate(-7541 13)"/>
          </g>
          <g transform="translate(-279.588 -1500.336)">
            <path id="Path_2846-2" data-name="Path 2846" class="cls-11" d="M7820.588,1584.336H9024.494" transform="translate(-7541 13)"/>
          </g>
          <g transform="translate(-279.588 -1403.336)">
            <path id="Path_2846-3" data-name="Path 2846" class="cls-11" d="M7820.588,1584.336H9024.494" transform="translate(-7541 13)"/>
          </g>
          <g transform="translate(-279.588 -1306.336)">
            <path id="Path_2846-4" data-name="Path 2846" class="cls-11" d="M7820.588,1584.336H9024.494" transform="translate(-7541 13)"/>
          </g>
          <g transform="translate(-279.588 -1209.336)">
            <path id="Path_2846-5" data-name="Path 2846" class="cls-11" d="M7820.588,1584.336H9024.494" transform="translate(-7541 13)"/>
          </g>
          <g transform="translate(-279.588 -1112.336)">
            <path id="Path_2846-6" data-name="Path 2846" class="cls-11" d="M7820.588,1584.336H9024.494" transform="translate(-7541 13)"/>
          </g>
          <g transform="translate(-279.588 -1015.336)">
            <path id="Path_2846-7" data-name="Path 2846" class="cls-11" d="M7820.588,1584.336H9024.494" transform="translate(-7541 13)"/>
          </g>
          <g transform="translate(-279.588 -918.336)">
            <path id="Path_2846-8" data-name="Path 2846" class="cls-11" d="M7820.588,1584.336H9024.494" transform="translate(-7541 13)"/>
          </g>
          <g transform="translate(-279.588 -821.336)">
            <path id="Path_2846-9" data-name="Path 2846" class="cls-11" d="M7820.588,1584.336H9024.494" transform="translate(-7541 13)"/>
          </g>
          <g transform="translate(-279.588 -724.336)">
            <path id="Path_2846-10" data-name="Path 2846" class="cls-11" d="M7820.588,1584.336H9024.494" transform="translate(-7541 13)"/>
          </g>
          <g transform="translate(-279.588 -627.336)">
            <path id="Path_2846-11" data-name="Path 2846" class="cls-11" d="M7820.588,1584.336H9024.494" transform="translate(-7541 13)"/>
          </g>
          <g transform="translate(-279.588 -530.336)">
            <path id="Path_2846-12" data-name="Path 2846" class="cls-11" d="M7820.588,1584.336H9024.494" transform="translate(-7541 13)"/>
          </g>
        </g>
        <g id="Repeat_Grid_2" data-name="Repeat Grid 2" class="cls-12" transform="translate(354.337 1364.96) rotate(-90)">
          <g transform="translate(-279.588 -1597.336)">
            <path id="Path_2846-13" data-name="Path 2846" class="cls-11" d="M7820.588,1584.336H8969.359" transform="translate(-7541 13)"/>
          </g>
          <g transform="translate(-279.588 -1425.336)">
            <path id="Path_2846-14" data-name="Path 2846" class="cls-11" d="M7820.588,1584.336H8969.359" transform="translate(-7541 13)"/>
          </g>
          <g transform="translate(-279.588 -1253.336)">
            <path id="Path_2846-15" data-name="Path 2846" class="cls-11" d="M7820.588,1584.336H8969.359" transform="translate(-7541 13)"/>
          </g>
          <g transform="translate(-279.588 -1081.336)">
            <path id="Path_2846-16" data-name="Path 2846" class="cls-11" d="M7820.588,1584.336H8969.359" transform="translate(-7541 13)"/>
          </g>
          <g transform="translate(-279.588 -909.336)">
            <path id="Path_2846-17" data-name="Path 2846" class="cls-11" d="M7820.588,1584.336H8969.359" transform="translate(-7541 13)"/>
          </g>
          <g transform="translate(-279.588 -737.336)">
            <path id="Path_2846-18" data-name="Path 2846" class="cls-11" d="M7820.588,1584.336H8969.359" transform="translate(-7541 13)"/>
          </g>
          <g transform="translate(-279.588 -565.336)">
            <path id="Path_2846-19" data-name="Path 2846" class="cls-11" d="M7820.588,1584.336H8969.359" transform="translate(-7541 13)"/>
          </g>
        </g>
        <line id="Line_19" data-name="Line 19" class="cls-13" x1="1032" transform="translate(354.629 216.504)"/>
        <line id="Line_20" data-name="Line 20" class="cls-13" y1="1068" transform="translate(181.629 296.504)"/>
      </g>
      <g id="_8:30" data-name="8:30">
        <g id="time">
          <rect id="Rectangle_506" data-name="Rectangle 506" class="cls-14" width="135.751" height="38.726" transform="translate(195.129 322.004)"/>
          <text id="_08:30_-_09:00" data-name="08:30 - 09:00" class="cls-15" transform="translate(211.129 348.004)"><tspan x="0" y="0">08:30 - 09:00</tspan></text>
        </g>
        <text id="Welcoming_Members" data-name="Welcoming 
Members" class="cls-16" transform="translate(435.129 336.004)"><tspan x="-57.396" y="0">Welcoming </tspan><tspan x="-46.465" y="25">Members</tspan></text>
      </g>
      <g id="welcoming">
        <rect id="Rectangle_598" data-name="Rectangle 598" class="cls-17" width="135.751" height="38.726" transform="translate(367.129 234.004)"/>
        <text id="Welcoming-2" data-name="Welcoming" class="cls-15" transform="translate(390.129 260.004)"><tspan x="0" y="0">Welcoming</tspan></text>
      </g>
      <g id="talks">
        <rect id="Rectangle_599" data-name="Rectangle 599" class="cls-18" width="135.751" height="38.726" transform="translate(549.129 234.004)"/>
        <text id="Talks-2" data-name="Talks" class="cls-15" transform="translate(596.129 260.004)"><tspan x="0" y="0">Talks</tspan></text>
      </g>
      <g id="_9:15" data-name="9:15" transform="translate(0 -16)">
        <rect id="Rectangle_588" data-name="Rectangle 588" class="cls-14" width="135.751" height="38.726" transform="translate(195.129 534.004)"/>
        <text id="_09:15_-_09:30" data-name="09:15 - 09:30" class="cls-15" transform="translate(211.129 560.004)"><tspan x="0" y="0">09:15 - 09:30</tspan></text>
        <text id="Keynotes_GDG_WTM" data-name="Keynotes
GDG &amp; WTM" class="cls-16" transform="translate(438.129 548.004)"><tspan x="-45.155" y="0">Keynotes</tspan><tspan x="-60.484" y="25">GDG &amp; WTM</tspan></text>
      </g>
      <g id="breaks">
        <rect id="Rectangle_600" data-name="Rectangle 600" class="cls-3" width="135.751" height="38.726" transform="translate(713.129 234.004)"/>
        <text id="Breaks-2" data-name="Breaks" class="cls-15" transform="translate(753.129 260.004)"><tspan x="0" y="0">Breaks</tspan></text>
      </g>
      <g id="_12:00" data-name="12:00">
        <g id="_12:00-2" data-name="12:00">
          <rect id="Rectangle_594" data-name="Rectangle 594" class="cls-3" width="135.751" height="38.726" transform="translate(195.129 1105.004)"/>
          <text id="_12:00_-_13:00" data-name="12:00 - 13:00" class="cls-15" transform="translate(211.129 1131.004)"><tspan x="0" y="0">12:00 - 13:00</tspan></text>
        </g>
        <g id="Lunch" transform="translate(-24 -83.638)">
          <rect id="Rectangle_615" data-name="Rectangle 615" class="cls-17" width="153.54" height="78.758" transform="translate(730.129 1166.004)"/>
          <text id="Lunch_Break" data-name="Lunch
Break" class="cls-19" transform="translate(803.129 1197.577)"><tspan x="-39.061" y="0">Lunch</tspan><tspan x="-36.717" y="34">Break</tspan></text>
        </g>
      </g>
      <g id="_09:00" data-name="09:00">
        <g id="time-2" data-name="time">
          <rect id="Rectangle_587" data-name="Rectangle 587" class="cls-14" width="135.751" height="38.726" transform="translate(195.129 420.004)"/>
          <text id="_09:00_-_09:15" data-name="09:00 - 09:15" class="cls-15" transform="translate(211.129 446.004)"><tspan x="0" y="0">09:00 - 09:15</tspan></text>
        </g>
        <text id="IWD_Openning" data-name="IWD 
Openning" class="cls-16" transform="translate(438.129 433.004)"><tspan x="-22.688" y="0">IWD </tspan><tspan x="-46.61" y="25">Openning</tspan></text>
      </g>
      <g id="workshops" transform="translate(10)">
        <rect id="Rectangle_602" data-name="Rectangle 602" class="cls-20" width="135.751" height="38.726" transform="translate(1046.129 234.004)"/>
        <text id="Workshops-2" data-name="Workshops" class="cls-15" transform="translate(1069.129 260.004)"><tspan x="0" y="0">Workshops</tspan></text>
      </g>
      <g id="Demos" transform="translate(23)">
        <rect id="Rectangle_603" data-name="Rectangle 603" class="cls-21" width="135.751" height="38.726" transform="translate(1210.129 234.004)"/>
        <text id="Demos-2" data-name="Demos" class="cls-15" transform="translate(1249.129 260.004)"><tspan x="0" y="0">Demos</tspan></text>
      </g>
      <g id="_9:30" data-name="9:30">
        <rect id="Rectangle_589" data-name="Rectangle 589" class="cls-14" width="135.751" height="38.726" transform="translate(195.129 615.004)"/>
        <text id="_09:30_-_10:00" data-name="09:30 - 10:00" class="cls-15" transform="translate(211.129 641.004)"><tspan x="0" y="0">09:30 - 10:00</tspan></text>
        <text id="Entrepreneurship_Experience" data-name="Entrepreneurship 
Experience" class="cls-16" transform="translate(612.129 630.004)"><tspan x="-85.959" y="0">Entrepreneurship </tspan><tspan x="-53.577" y="25">Experience</tspan></text>
      </g>
      <g id="_10:00" data-name="10:00">
        <rect id="Rectangle_590" data-name="Rectangle 590" class="cls-14" width="135.751" height="38.726" transform="translate(195.129 713.004)"/>
        <text id="_10:00_-_10:30" data-name="10:00 - 10:30" class="cls-15" transform="translate(211.129 739.004)"><tspan x="0" y="0">10:00 - 10:30</tspan></text>
        <text id="Smart_Cities_Project_" data-name="Smart Cities 
Project " class="cls-16" transform="translate(611.129 731.004)"><tspan x="-62.772" y="0">Smart Cities </tspan><tspan x="-37.356" y="25">Project </tspan></text>
      </g>
      <g id="_10:30" data-name="10:30">
        <rect id="Rectangle_591" data-name="Rectangle 591" class="cls-14" width="135.751" height="38.726" transform="translate(195.129 810.004)"/>
        <text id="_10:30_-_11:00" data-name="10:30 - 11:00" class="cls-15" transform="translate(211.129 836.004)"><tspan x="0" y="0">10:30 - 11:00</tspan></text>
        <text id="Get_Started_with_Ai_" data-name="Get Started 
with Ai " class="cls-16" transform="translate(608.129 826.004)"><tspan x="-58.078" y="0">Get Started </tspan><tspan x="-35.879" y="25">with Ai </tspan></text>
      </g>
      <g id="_11:00" data-name="11:00">
        <rect id="Rectangle_592" data-name="Rectangle 592" class="cls-14" width="135.751" height="38.726" transform="translate(195.129 905.004)"/>
        <text id="_11:00_-_11:30_" data-name="11:00 - 11:30 " class="cls-15" transform="translate(211.129 931.004)"><tspan x="0" y="0">11:00 - 11:30 </tspan></text>
        <text id="Build_Actions_on_Google_" data-name="Build Actions 
on Google " class="cls-16" transform="translate(612.129 920.004)"><tspan x="-67.112" y="0">Build Actions </tspan><tspan x="-52.497" y="25">on Google </tspan></text>
      </g>
      <g id="_11:30" data-name="11:30">
        <rect id="Rectangle_593" data-name="Rectangle 593" class="cls-14" width="135.751" height="38.726" transform="translate(195.129 1004.004)"/>
        <text id="_11:30_-_12:00" data-name="11:30 - 12:00" class="cls-15" transform="translate(211.129 1030.004)"><tspan x="0" y="0">11:30 - 12:00</tspan></text>
        <text id="Speechless" class="cls-16" transform="translate(610.129 1029.004)"><tspan x="-56.01" y="0">Speechless</tspan></text>
      </g>
      <g id="_15:00" data-name="15:00">
        <g id="android_things" data-name="android things" transform="translate(8)">
          <rect id="Rectangle_612" data-name="Rectangle 612" class="cls-17" width="75.54" height="58.12" transform="translate(1218.15 1275)"/>
          <text id="Android_Things-2" data-name="Android
Things" class="cls-22" transform="translate(1256.129 1301.004)"><tspan x="-24.315" y="0">Android</tspan><tspan x="-21.13" y="16">Things</tspan></text>
        </g>
        <g id="VR_AR" data-name="VR / AR" transform="translate(8)">
          <rect id="Rectangle_611" data-name="Rectangle 611" class="cls-23" width="80.54" height="58.12" transform="translate(1281.721 1293.59)"/>
          <text id="VR_AR-2" data-name="VR / AR" class="cls-22" transform="translate(1326.129 1328.004)"><tspan x="-23.991" y="0">VR / AR</tspan></text>
        </g>
        <rect id="Rectangle_596" data-name="Rectangle 596" class="cls-14" width="135.751" height="38.726" transform="translate(195.129 1294.004)"/>
        <text id="_15:00_-_17:00" data-name="15:00 - 17:00" class="cls-15" transform="translate(211.129 1320.004)"><tspan x="0" y="0">15:00 - 17:00</tspan></text>
        <g id="Wordpress" transform="translate(-8 -111)">
          <rect id="Rectangle_610" data-name="Rectangle 610" class="cls-24" width="75.54" height="58.12" transform="translate(1060.15 1386)"/>
          <text id="Word-_press" data-name="Word-
press" class="cls-22" transform="translate(1098.129 1410.004)"><tspan x="-18.279" y="0">Word-</tspan><tspan x="-17.158" y="16">press</tspan></text>
        </g>
        <g id="I_m_Remarkable" data-name="I&apos;m Remarkable" transform="translate(-8 -111)">
          <rect id="Rectangle_609" data-name="Rectangle 609" class="cls-23" width="80.54" height="58.12" transform="translate(1123.721 1404.59)"/>
          <text id="I_am_Remarkable" data-name="I am
Remarkable" class="cls-22" transform="translate(1164.129 1431.004)"><tspan x="-13.58" y="0">I am</tspan><tspan x="-37.02" y="16">Remarkable</tspan></text>
        </g>
      </g>
      <g id="Design_Thinking" data-name="Design Thinking" transform="translate(-2)">
        <rect id="Rectangle_601" data-name="Rectangle 601" class="cls-25" width="135.751" height="38.726" transform="translate(887.129 234.004)"/>
        <text id="Design_Thinking-2" data-name="Design Thinking" class="cls-15" transform="translate(891.129 260.004)"><tspan x="0" y="0">Design Thinking</tspan></text>
      </g>
      <g id="_13:00" data-name="13:00">
        <g id="Flutter" transform="translate(8 -202)">
          <rect id="Rectangle_614" data-name="Rectangle 614" class="cls-17" width="75.54" height="58.12" transform="translate(1218.15 1382)"/>
          <text id="Flutter-2" data-name="Flutter" class="cls-22" transform="translate(1256.129 1414.004)"><tspan x="-20.077" y="0">Flutter</tspan></text>
        </g>
        <g id="Dialog_Flow" data-name="Dialog Flow" transform="translate(8 -202)">
          <rect id="Rectangle_613" data-name="Rectangle 613" class="cls-23" width="80.54" height="58.12" transform="translate(1281.721 1400.59)"/>
          <text id="Dialogue_Flow" data-name="Dialogue
Flow" class="cls-22" transform="translate(1323.129 1428.004)"><tspan x="-27.282" y="0">Dialogue</tspan><tspan x="-14.82" y="16">Flow</tspan></text>
        </g>
        <rect id="Rectangle_595" data-name="Rectangle 595" class="cls-14" width="135.751" height="38.726" transform="translate(195.129 1199.004)"/>
        <text id="_13:00_-_15:00" data-name="13:00 - 15:00" class="cls-15" transform="translate(211.129 1225.004)"><tspan x="0" y="0">13:00 - 15:00</tspan></text>
        <g id="github" transform="translate(-8 -95)">
          <rect id="Rectangle_608" data-name="Rectangle 608" class="cls-17" width="75.54" height="58.12" transform="translate(1060.15 1275)"/>
          <text id="Git_GitHub" data-name="Git
GitHub" class="cls-22" transform="translate(1098.129 1299.004)"><tspan x="-8.753" y="0">Git</tspan><tspan x="-21.53" y="16">GitHub</tspan></text>
        </g>
        <g id="ml" transform="translate(-8 -95)">
          <rect id="Rectangle_607" data-name="Rectangle 607" class="cls-23" width="80.54" height="58.12" transform="translate(1123.721 1293.59)"/>
          <text id="ML-2" data-name="ML" class="cls-22" transform="translate(1164.129 1328.004)"><tspan x="-9.878" y="0">ML</tspan></text>
        </g>
      </g>
      <g id="Design_Thinking-3" data-name="Design Thinking">
        <rect id="Rectangle_616" data-name="Rectangle 616" class="cls-25" width="112.54" height="821.12" transform="translate(899.129 518.004)"/>
        <text id="Design_Thinking_Challenge" data-name="Design Thinking Challenge" class="cls-26" transform="translate(938.129 929.004) rotate(90)"><tspan x="-281.754" y="0">Design Thinking Challenge</tspan></text>
      </g>
    </g>
    <g id="Woman" transform="translate(1159.244 249.166)">
      <rect id="Rectangle_536" data-name="Rectangle 536" class="cls-27" width="91.329" height="44.803" transform="translate(323.165 429.661)"/>
      <rect id="Rectangle_537" data-name="Rectangle 537" class="cls-27" width="91.329" height="44.803" transform="translate(323.165 555.453)"/>
      <rect id="Rectangle_538" data-name="Rectangle 538" class="cls-27" width="91.329" height="44.803" transform="translate(323.165 681.246)"/>
      <rect id="Rectangle_539" data-name="Rectangle 539" class="cls-27" width="91.329" height="44.803" transform="translate(323.165 807.038)"/>
      <path id="Path_2662" data-name="Path 2662" class="cls-28" d="M240.275,339.792c13.785,2.223,29.122,7.53,34.464,20.454,3.981,9.77.9,20.764-.121,31.259a24.123,24.123,0,0,0,.293,8.323c1.137,4.429,4.273,8.013,7.306,11.442a60.674,60.674,0,0,1,10.494,14.716c2.481,5.514,3.274,12.062.706,17.576a12.665,12.665,0,0,0-1.723,4.635c-.172,3.584,3.584,5.859,6.341,8.151,10.339,8.616,9.908,24.125,9.994,37.617a190.774,190.774,0,0,0,17.9,79.594,24.314,24.314,0,0,1-27.175-3.55,90.549,90.549,0,0,0,6.169,17.783c-8.754,4.239-19.317-2.723-23.711-11.408s-4.911-18.783-8.03-28-8.616-17.232-11.046-26.52c-.775-3.067-1.258-6.341-3.136-8.892a23.4,23.4,0,0,0-5.514-4.7A53.814,53.814,0,0,1,234,481.852c-10.718,2.361-21.66,4.739-32.585,3.739s-22.091-5.945-27.864-15.285c-2.55-4.118-3.929-8.857-6.29-13.1-2.895-5.17-7.151-9.443-10.339-14.389-7.685-11.769-9.1-26.882-5.979-40.6S161.284,376.1,169.9,364.985C186.408,343.549,214.152,335.6,240.275,339.792Z" transform="translate(143.15 67.536)"/>
      <path id="Path_2663" data-name="Path 2663" class="cls-3" d="M184.616,448.865c.775,4.928,1.723,9.857,2.826,14.733a144.183,144.183,0,0,0,4.756,16.646,15.887,15.887,0,0,1,1.5,7.651,13.9,13.9,0,0,1-1.844,4.549c-6.29,11.184-14.8,21.988-15.509,34.808-.172,3.188,0,6.651-1.723,9.288q-7.289-15.7-16.095-30.6c-6.135-10.339-12.958-20.92-14.716-32.878a61.6,61.6,0,0,1,.224-16.887c.81-6.29,2.223-12.734,6.048-17.766,4.17-5.445,15.509-13.665,22.97-11.959C181.721,428.428,183.513,441.851,184.616,448.865Z" transform="translate(285.813 130.817)"/>
      <path id="Path_2664" data-name="Path 2664" class="cls-29" d="M393.726,526.171c-8.237-3.36-16.646-6.893-23.177-12.958A75.817,75.817,0,0,1,360,500.133l-19.386-27.967c-4.584-6.651-9.322-13.63-10.339-21.643a71.271,71.271,0,0,1-19.351-44.01c-.138-1.637-.689-3.791-2.326-3.843a2.878,2.878,0,0,0-1.9.913,10.908,10.908,0,0,0-3.446,9.288c-2.826-.138-5.893-.207-8.2,1.448s-2.929,5.755-.448,7.117a3.55,3.55,0,0,0-2.464,4.015c-2.964-.586-6.221-1.068-8.84.414s-3.619,5.824-1.086,7.444a7.685,7.685,0,0,0-4.911,7.358,14.613,14.613,0,0,0,3.36,8.616c7.444,9.995,20.575,14.027,29.208,23.022a69.569,69.569,0,0,1,7.6,10.15l25,38.048c7.944,12.062,16.095,24.417,27.433,33.412a25.105,25.105,0,0,0,10.219,5.428,11.252,11.252,0,0,0,10.735-2.981c2.5-2.843,2.878-6.893,3.119-10.7C394.4,539.25,393.3,532.633,393.726,526.171Z" transform="translate(-145.399 113.788)"/>
      <path id="Path_2665" data-name="Path 2665" class="cls-28" d="M207.049,790.1a20.849,20.849,0,0,0-2.671,3.24,11.3,11.3,0,0,0-1.12,9.271,12.39,12.39,0,0,0,6.048,7.169,11.051,11.051,0,0,1,1.913,1.1,10.88,10.88,0,0,0,1.172,1,4.775,4.775,0,0,0,2.6.482,91.959,91.959,0,0,0,19.765-3.446c2.964-.741,6.1-1.585,8.168-3.825a15.628,15.628,0,0,0,2.792-5.428l2.344-6.531a75.711,75.711,0,0,0,3.6-12.166,24.952,24.952,0,0,0-.655-12.545,3.946,3.946,0,0,0-.862,2.568,28.088,28.088,0,0,1-5.032,12.166,12.365,12.365,0,0,1-1.964,2.464,12.512,12.512,0,0,1-5.876,2.464,72.906,72.906,0,0,1-12.51,1.6,3.448,3.448,0,0,1-1.723-.207,3.085,3.085,0,0,1-1.43-1.723,7.616,7.616,0,0,1,0-5.169c1.137-3.188,4.256-5.273,5.738-8.306,1.12-2.24-.414-4.7-2.688-2.809a71.587,71.587,0,0,0-5.773,6.1Z" transform="translate(125.008 378.293)"/>
      <path id="Path_2666" data-name="Path 2666" class="cls-29" d="M216.658,764.713c.672,10.529,1.137,21.9-4.618,30.742-2.085,3.171-4.859,5.842-7.22,8.823a10.511,10.511,0,0,0-2.585,5.325c-.327,3.86,3.291,7.168,7.1,7.892s7.7-.482,11.39-1.723a27.434,27.434,0,0,0,9.667-4.549c5.014-4.239,6.341-11.3,7.341-17.783l2.344-15.061a36.014,36.014,0,0,0-2.137-22.746l-3.86-11.3a5.171,5.171,0,0,0-1.723-2.809,4.791,4.791,0,0,0-2.947-.551c-3.688.19-13.01,1.534-14.8,5.445C213.091,749.808,216.4,760.664,216.658,764.713Z" transform="translate(137.06 358.409)"/>
      <path id="Path_2667" data-name="Path 2667" class="cls-30" d="M216.658,764.713c.672,10.529,1.137,21.9-4.618,30.742-2.085,3.171-4.859,5.842-7.22,8.823a10.511,10.511,0,0,0-2.585,5.325c-.327,3.86,3.291,7.168,7.1,7.892s7.7-.482,11.39-1.723a27.434,27.434,0,0,0,9.667-4.549c5.014-4.239,6.341-11.3,7.341-17.783l2.344-15.061a36.014,36.014,0,0,0-2.137-22.746l-3.86-11.3a5.171,5.171,0,0,0-1.723-2.809,4.791,4.791,0,0,0-2.947-.551c-3.688.19-13.01,1.534-14.8,5.445C213.091,749.808,216.4,760.664,216.658,764.713Z" transform="translate(137.06 358.409)"/>
      <path id="Path_2668" data-name="Path 2668" class="cls-28" d="M204.936,584.6a1.914,1.914,0,0,0,0,.293,12.909,12.909,0,0,0,1.413,4.256,61.208,61.208,0,0,1,5.445,21.953,19.263,19.263,0,0,0,.758,5.549,27.573,27.573,0,0,0,2.826,4.877c3.36,5.463,4.136,12.062,5.256,18.318a144.749,144.749,0,0,0,6.41,24.021c3.843,10.649,9.012,21.54,7.255,32.741a33.639,33.639,0,0,0-1,8.047,23.369,23.369,0,0,0,3.153,8.461,80.682,80.682,0,0,1,3.446,7.84c1.12,2.861,2.119,5.79,3,8.754,1.034,3.6,1.723,7.875-.655,10.77a13.134,13.134,0,0,0-1.947,2.361,6.325,6.325,0,0,0,0,4.067q2.051,8.616,4.377,17.232c1.206,4.48,2.481,8.926,3.791,13.372,9.684,32.517,20.678,64.706,27.157,98.015.931,4.791,7.082,8.22,11.838,9.271a15.509,15.509,0,0,0,13.613-3.636c.327-.293.638-.62.931-.93,5-5.376,5.738-13.63,5.359-21.075-1.723-34.274-18.955-65.653-27.157-98.963a191.446,191.446,0,0,1-5.342-36.738c-1.913-41.357-2.688-85.091,9.012-124.845,2.43-8.271,5.307-17.611.93-25.021-2.757-4.687-7.875-7.461-12.941-9.46a83.248,83.248,0,0,0-64.551,1.723,20.058,20.058,0,0,0,.1,2.481,25.436,25.436,0,0,1-1.31,11.408,14.491,14.491,0,0,0-1.172,4.859Z" transform="translate(65.948 226.44)"/>
      <path id="Path_2669" data-name="Path 2669" class="cls-28" d="M211.548,766.149l2.188,7.961a90.23,90.23,0,0,0,4.653,14.01,60.17,60.17,0,0,1,4.136,9.512,29.519,29.519,0,0,1,.706,8.168,24.383,24.383,0,0,1-1.12,7.737,19.214,19.214,0,0,1-11.27,10.684,52.526,52.526,0,0,1-15.681,2.947,12.68,12.68,0,0,1-4.118-.1,11.187,11.187,0,0,1-3.981-2.085c-7.272-5.325-11.011-15.147-11.666-24.125a29.641,29.641,0,0,1,1.223-6.169c.569-.758,6.066,2.343,3.7,4.946-3.446,3.825,6.7,1.844,11.873,1.516a44.626,44.626,0,0,0,6.738-1.1l8.375-1.723c2.74-.586,5.893-1.534,6.893-4.153s-1.137-5.756-2.792-8.306c-4.377-6.772-5.514-15.061-6.531-23.056-.19-1.568-2.154-11.752,1.9-8.616a11.423,11.423,0,0,1,2.809,5.29C210.325,761.634,210.945,763.892,211.548,766.149Z" transform="translate(201.016 367.571)"/>
      <path id="Path_2670" data-name="Path 2670" class="cls-30" d="M207.137,674.96c2.378-2.895,1.723-7.168.638-10.77-.379-1.344-.81-2.671-1.258-4L239.4,649.06c.121,2.964.258,5.893.4,8.823a190.441,190.441,0,0,0,5.325,36.755c8.22,33.292,25.469,64.671,27.157,98.928.4,7.892-.448,16.715-6.29,22.022a15.509,15.509,0,0,1-13.6,3.653c-4.773-1.051-10.908-4.5-11.856-9.288-6.514-33.309-17.456-65.481-27.157-98.032q-4.532-15.147-8.168-30.535a6.273,6.273,0,0,1,0-4.05,12.064,12.064,0,0,1,1.93-2.378Z" transform="translate(101.14 291.973)"/>
      <path id="Path_2671" data-name="Path 2671" class="cls-29" d="M202.8,745.707c2.6,4.48,6.565,8.444,7.168,13.579.362,3.084-.586,6.186-.569,9.305a30.242,30.242,0,0,0,1.361,7.6q4.808,17.353,11.063,34.222a9.391,9.391,0,0,1,.879,4.653c-.414,2.637-2.981,4.377-5.428,5.428-7.841,3.343-16.663,3.119-25.176,2.774a13.215,13.215,0,0,1-7.082-1.723c-3.05-2.085-3.808-6.2-4-9.891-.586-10.684,1.223-21.419,0-32.034-.431-3.877-1.241-7.685-1.844-11.528-.844-5.342-1.275-10.959.482-16.077a36.861,36.861,0,0,1,6.031-10.115,31.8,31.8,0,0,1,8.357-8.34c1-.586,3.843-2.412,4.859-1.275.517.586.293,2.154.362,2.878a30.183,30.183,0,0,0,.586,3.308,27.277,27.277,0,0,0,2.947,7.237Z" transform="translate(196.327 351.895)"/>
      <path id="Path_2672" data-name="Path 2672" class="cls-30" d="M270.5,597.97c1.534,2.085,1.223,4.98.6,7.5-1.086,4.549-2.912,8.909-4.394,13.337a185.581,185.581,0,0,0-5.652,24.262c-1.379,7.41-4.308,15.664-3.119,23.125A164.771,164.771,0,0,0,240.479,721c-.672,4.911,10.236,11.253,10.029,16.2-.414,9.857-8.271,10.649-2.481,18.507.293.4-2.171,9.2-1.844,9.581,2.361,2.843,5.359,5.17,7.892,7.772a59.741,59.741,0,0,1,8.323,12.183c14.992,27.088,36.669,57.8,29.983,88.037a5.359,5.359,0,0,0,2.86,5.428,14.817,14.817,0,0,0,6.341,1.465h1.034c5-5.376,5.738-13.63,5.359-21.074-1.723-34.274-18.955-65.653-27.157-98.963a191.445,191.445,0,0,1-5.342-36.738c-1.913-41.357-2.688-85.091,9.012-124.845,2.43-8.271,5.307-17.611.93-25.021-2.757-4.687-7.875-7.461-12.941-9.46a83.247,83.247,0,0,0-64.551,1.723,20.046,20.046,0,0,0,.1,2.481,25.435,25.435,0,0,1-1.31,11.408,14.494,14.494,0,0,0-1.292,4.963s-.586-6.669-.569-6.565c13.355,1.913,27.45,10.649,40.926,12.631a95.516,95.516,0,0,1,20.523,4.515,9.236,9.236,0,0,1,4.187,2.74Z" transform="translate(65.454 226.404)"/>
      <path id="Path_2673" data-name="Path 2673" class="cls-28" d="M329.644,543.961q2.705,8.616,4.773,17.4a14.561,14.561,0,0,1,.482,6.255c-.431,1.964-1.723,3.722-1.861,5.721-.31,3.1,1.844,5.842,3.033,8.719,3.033,7.324-.207,15.595-3.446,22.849l-9.512,21.54-7.823,17.68q-3.489,7.884-6.893,15.8a512.345,512.345,0,0,0-24.831,74.424,9.169,9.169,0,0,1-1.275,3.24c-1.327,1.723-3.722,2.275-5.652,3.343-5.859,3.205-6.531,12.82-1.172,16.818-1.1,12.941,8.616,25.434,13.6,37.428,11.511,27.571,9.426,58.588,13.372,88.227l-4.463-2.619c-4.291,1.964-4.136,8.047-6.445,12.166-3.446,6.186-11.924,7.048-18.955,6.583a14.68,14.68,0,0,1-6.324-1.465,5.342,5.342,0,0,1-2.861-5.428c6.669-30.242-14.992-60.949-30-88.038a59.673,59.673,0,0,0-8.306-12.183c-2.55-2.688-5.531-4.945-7.909-7.772-6.617-7.944-7.461-19.145-7.013-29.484a165.047,165.047,0,0,1,18.783-69.634c-1.206-7.444,1.723-15.7,3.1-23.108a181.4,181.4,0,0,1,5.7-24.245c1.482-4.463,3.291-8.806,4.394-13.355.6-2.516.93-5.411-.6-7.5a9.286,9.286,0,0,0-4.239-2.74,95.516,95.516,0,0,0-20.523-4.515l-46.233-6.634c-1.482-9.495-3-20.075-1.964-29.622a45.544,45.544,0,0,1,32.62-38.1c2.016-.534,4.377-.879,6.031.4a240.555,240.555,0,0,1,122.415,7.841Z" transform="translate(99.342 207.039)"/>
      <path id="Path_2674" data-name="Path 2674" class="cls-29" d="M243.845,403.251a22.694,22.694,0,0,0,2.016,13.234,20.782,20.782,0,0,0,5.17,5.807,39.632,39.632,0,0,0,15.233,7.565c3.274.827,6.893,1.378,9.116,3.98,3.24,3.912,1.068,9.839-1.723,14.113-4.79,7.444-11.442,14.182-19.972,16.508-6.893,1.861-14.078.724-21.04,1.93-5.049.879-9.8,2.964-14.785,4.153a43.666,43.666,0,0,1-40.1-11.183c7.41-5.687,15.1-11.735,18.955-20.247a28.726,28.726,0,0,0,1.447-19.369c-1.723-6.307-5.773-12.441-4.532-18.955s7.582-10.873,13.786-13.044a89.946,89.946,0,0,1,17.473-3.464c3.257-.448,23.935-5.014,25.227-2.757.724,1.275-3.567,8.823-4.1,10.494a39.908,39.908,0,0,0-2.171,11.235Z" transform="translate(143.216 98.042)"/>
      <circle id="Ellipse_404" data-name="Ellipse 404" class="cls-29" cx="41.942" cy="41.942" r="41.942" transform="translate(319.047 432.504)"/>
      <path id="Path_2675" data-name="Path 2675" class="cls-3" d="M257.637,424.409l-28.45,4.79a106.441,106.441,0,0,1-21.247,2.137,59.194,59.194,0,0,0-11.718,0c-2.688.448-5.256,1.465-7.944,1.809-3.326.414-6.7-.224-10.029.207-6.169.793-11.252,5.066-15.939,9.15-5.5,4.79-11.407,10.339-11.838,17.663a5.36,5.36,0,0,0,.345,2.447,7.185,7.185,0,0,0,2.12,2.206c5.169,4.291,8.151,10.684,11.873,16.336a62.945,62.945,0,0,0,14.13,15.25c1.241-.793,3.6,1.292,3.067,2.671s-1.9,2.326-2.344,3.722c-1.017,3.222,2.964,5.6,4.618,8.616s.81,6.686.982,10.115c.207,3.774,1.723,7.375,2.188,11.115,1.155,8.737-3.171,17.938-.121,26.192-3.739-.465-7.117,2.757-8.168,6.359s-.379,7.479.327,11.166a15.353,15.353,0,0,0-7.444,14.027,2.412,2.412,0,0,1-1.723,3.343,14.2,14.2,0,0,0-8.737,13.148,6.582,6.582,0,0,1-.258,2.792,6.17,6.17,0,0,1-2.051,2.119,16.336,16.336,0,0,0-6.1,12.786c0,3.326,1.379,6.893,4.325,8.392,6.031,3.067,12.493,4.256,19.11,5.686a168.136,168.136,0,0,0,18.49,3.291,170.373,170.373,0,0,0,17.232.534l38.048-.155c10.7,0,21.4,0,32.069-.81,9.96-.672,20.144-1.913,29.794.706,1.206-2.051-.724-4.411-1.913-6.462a21.506,21.506,0,0,1-2.171-8.961l-2.412-25.348a46.646,46.646,0,0,1-.19-10.511c.517-3.739,1.93-7.272,2.654-10.977,1.379-7.1.121-14.44.448-21.678a99.273,99.273,0,0,1,3.326-18.955l7.548-31.017c1.206-4.98,1.844-10.77,3.7-15.509q8.7-22.4,18.249-44.32a4.7,4.7,0,0,0-.345-3.929l-6.29-11.27A71.319,71.319,0,0,0,329.1,424.1a36.186,36.186,0,0,0-21.23-13.027,37.427,37.427,0,0,0-24.693,3.653c-2.929,1.568-5.652,3.446-8.616,5C269.475,422.135,263.272,424.789,257.637,424.409Z" transform="translate(125.513 119.361)"/>
      <path id="Path_2676" data-name="Path 2676" class="cls-3" d="M296.6,434.55l-9.908,13.217a18.39,18.39,0,0,0-2.309,3.653c-1.482,3.446-.672,7.513-1.465,11.218a23.644,23.644,0,0,1-2.912,6.7,150.77,150.77,0,0,1-12.6,18.731,32.45,32.45,0,0,1-7.841,7.737,12.889,12.889,0,0,1-10.546,1.878,6.5,6.5,0,0,1,3.446,3.136c3.774,7.479,4.049,16.336,2.447,24.538a24.812,24.812,0,0,1-2.757,8.03,11.925,11.925,0,0,1-6.307,5.463,9.271,9.271,0,0,0,10.942,7.858,17.8,17.8,0,0,0,5.428-2.705l15.922-10.339a44.292,44.292,0,0,0,7.41-5.566c2.981-2.964,5.049-6.72,7.944-9.77,4.928-5.17,12.166-8.34,15.647-14.613,2.188-3.929,2.568-8.616,3.912-12.855.879-2.809,2.171-5.462,3.016-8.288,2.619-8.719.724-18.283-3.257-26.468S302.491,441.512,296.6,434.55Z" transform="translate(-14.392 136.843)"/>
      <path id="Path_2677" data-name="Path 2677" class="cls-28" d="M153.874,382.59a55.588,55.588,0,0,1,14.75-15.354c7.84-5.842,16.853-10.7,26.623-11.252a28.811,28.811,0,0,1,11.976,1.947c.19-11.838,3.119-19.73,10.529-18.542,13.785,2.223,29.122,7.53,34.464,20.454,3.981,9.77.9,20.764-.121,31.259a24.124,24.124,0,0,0,.293,8.323c1.137,4.429,4.273,8.013,7.306,11.442a60.673,60.673,0,0,1,10.494,14.716c2.481,5.514,3.274,12.062.706,17.577a12.665,12.665,0,0,0-1.723,4.635c-.172,3.584,3.584,5.859,6.341,8.151,10.339,8.616,9.908,24.125,9.994,37.617a190.774,190.774,0,0,0,17.9,79.594,24.314,24.314,0,0,1-27.175-3.55,90.551,90.551,0,0,0,6.169,17.783c-8.754,4.239-19.317-2.723-23.711-11.408s-4.911-18.783-8.03-28-8.616-17.232-11.046-26.52c-.775-3.067-1.258-6.341-3.136-8.892a23.4,23.4,0,0,0-5.514-4.7c-9.029-6.479,4.274-55.573.741-66.119-5.17,1.155-14.906-24.125-20.4-49.972a26.019,26.019,0,0,1-11.942,1.189,14.788,14.788,0,0,0-4.256-.293,10.959,10.959,0,0,0-3.722,1.516,94.216,94.216,0,0,1-12.717,6.531c-9.1,3.446-19.093,2.947-28.794,2.464A28.691,28.691,0,0,1,153.874,382.59Z" transform="translate(165.673 67.939)"/>
      <g id="Group_179" data-name="Group 179" class="cls-31" transform="translate(323.079 407.281)">
        <path id="Path_2678" data-name="Path 2678" d="M233.75,573.127A190.257,190.257,0,0,1,215.76,493.6c-.086-13.441.362-29.053-9.994-37.617-2.757-2.292-6.514-4.566-6.341-8.151a12.94,12.94,0,0,1,1.723-4.635c2.568-5.48,1.723-12.062-.689-17.577a60.311,60.311,0,0,0-10.511-14.716c-3.016-3.446-6.169-7.013-7.289-11.442a24.5,24.5,0,0,1-.31-8.323c1.034-10.494,4.1-21.488.121-31.259-5.17-12.51-19.627-17.869-33.068-20.213a7.565,7.565,0,0,1,3.619-.241c13.786,2.223,29.122,7.53,34.464,20.454,3.981,9.77.9,20.764-.121,31.259a24.124,24.124,0,0,0,.293,8.323c1.137,4.429,4.273,8.013,7.306,11.442a60.674,60.674,0,0,1,10.494,14.716c2.481,5.514,3.274,12.062.706,17.577a12.664,12.664,0,0,0-1.723,4.635c-.172,3.584,3.584,5.859,6.341,8.151,10.339,8.616,9.908,24.125,9.995,37.617a190.774,190.774,0,0,0,17.9,79.525,23.574,23.574,0,0,1-13.32,2.5,22.749,22.749,0,0,0,8.392-2.5Z" transform="translate(-92.673 -339.313)"/>
        <path id="Path_2679" data-name="Path 2679" d="M167.657,490.683A90.552,90.552,0,0,1,161.54,472.9a22.985,22.985,0,0,0,5.962,3.946,90.156,90.156,0,0,0,5.17,13.785,13.1,13.1,0,0,1-8.1,1.034,12.865,12.865,0,0,0,3.084-.982Z" transform="translate(-47.586 -242.704)"/>
        <path id="Path_2680" data-name="Path 2680" d="M216.056,350.9a28.9,28.9,0,0,0-8-1.861h.948a28.072,28.072,0,0,1,7.082.534C216.073,349.949,216.056,350.414,216.056,350.9Z" transform="translate(-171.166 -332.308)"/>
        <path id="Path_2681" data-name="Path 2681" d="M229.186,378.3a94.007,94.007,0,0,0,12.7-6.531,11.028,11.028,0,0,1,3.739-1.516,12.907,12.907,0,0,1,3.894.241,15.961,15.961,0,0,0-2.688,1.275,94.217,94.217,0,0,1-12.717,6.531,56.866,56.866,0,0,1-21.264,2.757A49.872,49.872,0,0,0,229.186,378.3Z" transform="translate(-212.85 -316.975)"/>
        <path id="Path_2682" data-name="Path 2682" d="M211.567,369.71a5.361,5.361,0,0,0,.241,1.137,26.061,26.061,0,0,1-6.238.172A27.571,27.571,0,0,0,211.567,369.71Z" transform="translate(-162.594 -317.33)"/>
      </g>
      <path id="Path_2683" data-name="Path 2683" class="cls-29" d="M150.744,545.866a15.405,15.405,0,0,0,4.136,12.252,27.158,27.158,0,0,0,5.842,4.291,15.51,15.51,0,0,0,6.893,2.6,13.114,13.114,0,0,0,8.857-3.843c7.306-6.41,10.959-15.905,14.337-25.021,4.463-12.062,8.909-24.245,10.822-36.979,2.051-13.648,1.172-27.778,5.083-41.029-3.446-6.893-5.687-14.578-9.633-21.264a99.031,99.031,0,0,1-6.634-12.441,43.08,43.08,0,0,1-1.172-28.708,3.9,3.9,0,0,0-4.584.241,9.495,9.495,0,0,0-2.757,4.015,35.6,35.6,0,0,0-2.757,16.87,6.548,6.548,0,0,1-.465,4.118,5.17,5.17,0,0,1-4.48,1.9,40.444,40.444,0,0,1-10.339-1.878,96.068,96.068,0,0,0-31.9-2.637,15.388,15.388,0,0,0-6.221,1.516,5.79,5.79,0,0,0-3.205,5.17l25.5,3.739a10.511,10.511,0,0,1,5.359,1.827,3.619,3.619,0,0,1,.724,5.049,11.841,11.841,0,0,1-1.723,1.172,5.17,5.17,0,0,0,.207,8.392,5.926,5.926,0,0,1,1.723,1.206c1.034,1.4-.345,3.24-.793,4.928a6.221,6.221,0,0,0,3.067,6.359,21.315,21.315,0,0,0,7.117,2.4,76.338,76.338,0,0,1,14.561,4.945,8,8,0,0,1,3.791,2.843c1.258,2.137.431,4.825-.431,7.151l-6.652,17.887a79.151,79.151,0,0,1-3.446,8.323c-1.723,3.446-3.774,6.789-5.514,10.339A107.668,107.668,0,0,0,161.91,521.6C158.585,530.719,151.881,536.234,150.744,545.866Z" transform="translate(308.605 108.308)"/>
      <rect id="Rectangle_542" data-name="Rectangle 542" class="cls-23" width="76.751" height="74.304" transform="translate(151.088 539.462)"/>
      <path id="Path_2684" data-name="Path 2684" class="cls-29" d="M342.753,414.464a7.927,7.927,0,0,1,2.912,4.256,1.723,1.723,0,0,1-.672,1.93,1.93,1.93,0,0,1-1.172,0,10.942,10.942,0,0,1-5.17-2.43,5.17,5.17,0,0,1,1.534,1.241,1.723,1.723,0,0,1,.207,1.861,2.43,2.43,0,0,1-1.723.879,16.493,16.493,0,0,1-7.392-.345,10.15,10.15,0,0,1,3.067,1.809,4.119,4.119,0,0,1,1.4,3.188,1.585,1.585,0,0,1-.551,1.189,1.981,1.981,0,0,1-.827.293,19.921,19.921,0,0,1-6.893,0,3.532,3.532,0,0,1-2.895-1.723,4.342,4.342,0,0,1,.672-3.326,18.594,18.594,0,0,0,1.723-8.409,3.308,3.308,0,0,1,.241-1.723,3.068,3.068,0,0,1,1.534-1.12c2.43-1.068,5.738-2.55,8.444-1.723a17.766,17.766,0,0,1,5.566,4.153Z" transform="translate(-178.362 119.139)"/>
    </g>
  </g>
</svg>
